<svg xmlns="http://www.w3.org/2000/svg"  viewBox="0 0 100 100" width="100px" height="100px"><polygon fill="#a3a3cd" points="30.066,80.269 15.171,82.13 20.757,71.89 7.724,68.166 18.895,59.788 5.862,46.754 18.895,43.031 4,22.55 25.412,26.274 20.757,3 43.1,17.895 57.995,3 59.857,22.55 84.061,16.964 74.752,38.376 91.509,45.824 75.683,54.202 87.785,62.581 77.545,67.235 83.13,78.407 71.028,79.338 71.959,85.854 46.824,79.338"/><path d="M71.959,86.854c-0.084,0-0.168-0.011-0.251-0.032l-24.985-6.478l-16.566,0.92l-14.861,1.858 c-0.369,0.044-0.739-0.119-0.95-0.43c-0.212-0.31-0.231-0.712-0.052-1.041l4.987-9.145l-11.831-3.38 c-0.365-0.104-0.64-0.407-0.709-0.78c-0.069-0.374,0.08-0.754,0.384-0.981l10.249-7.687L5.155,47.461 c-0.251-0.25-0.35-0.615-0.261-0.958c0.089-0.343,0.353-0.613,0.693-0.71l11.657-3.331L3.191,23.138 c-0.239-0.33-0.256-0.771-0.04-1.117c0.215-0.346,0.621-0.527,1.02-0.457l19.975,3.474L19.776,3.196 c-0.079-0.397,0.088-0.802,0.424-1.027c0.337-0.224,0.774-0.225,1.111-0.001l21.661,14.44L57.288,2.293 c0.273-0.274,0.679-0.366,1.046-0.234c0.364,0.131,0.62,0.46,0.656,0.846l1.754,18.414l23.093-5.329 c0.365-0.086,0.752,0.045,0.993,0.335c0.242,0.29,0.299,0.691,0.148,1.038l-8.914,20.502l15.851,7.045 c0.35,0.155,0.58,0.497,0.593,0.879c0.014,0.382-0.192,0.739-0.531,0.918l-14.372,7.609l10.75,7.441 c0.296,0.205,0.459,0.553,0.427,0.911c-0.032,0.359-0.255,0.673-0.582,0.821l-9.296,4.226l5.122,10.243 c0.148,0.298,0.14,0.65-0.024,0.939c-0.164,0.29-0.461,0.479-0.793,0.505l-11.039,0.85l0.78,5.46 c0.047,0.331-0.074,0.664-0.324,0.887C72.44,86.766,72.202,86.854,71.959,86.854z M46.823,78.338c0.085,0,0.169,0.011,0.251,0.032 l23.683,6.14l-0.719-5.03c-0.039-0.274,0.037-0.552,0.21-0.768s0.428-0.35,0.703-0.371l10.62-0.817l-4.921-9.841 c-0.121-0.243-0.139-0.524-0.048-0.781c0.091-0.256,0.281-0.464,0.528-0.576l8.636-3.926l-10.653-7.375 c-0.287-0.199-0.449-0.533-0.429-0.882s0.222-0.661,0.53-0.824l14.009-7.416L74.346,39.29c-0.502-0.223-0.729-0.809-0.511-1.313 l8.519-19.592l-22.272,5.14c-0.28,0.064-0.575,0.005-0.81-0.164c-0.233-0.168-0.383-0.429-0.41-0.716l-1.66-17.436L43.807,18.602 c-0.337,0.338-0.866,0.39-1.262,0.125L22.211,5.171l4.182,20.906c0.064,0.324-0.034,0.658-0.265,0.895 c-0.229,0.236-0.563,0.345-0.887,0.287l-18.98-3.301l13.443,18.484c0.192,0.264,0.243,0.605,0.137,0.914s-0.356,0.546-0.671,0.636 L7.771,47.249l11.831,11.832c0.205,0.205,0.311,0.489,0.29,0.778s-0.165,0.555-0.397,0.729l-9.561,7.17l11.097,3.17 c0.292,0.084,0.53,0.296,0.648,0.575c0.117,0.28,0.101,0.599-0.045,0.865l-4.651,8.528l12.959-1.62 c0.022-0.003,0.046-0.005,0.068-0.006l16.757-0.931C46.786,78.339,46.805,78.338,46.823,78.338z"/><circle cx="27" cy="64" r="6" fill="#fed5b3"/><path d="M27,71c-3.859,0-7-3.141-7-7s3.141-7,7-7s7,3.141,7,7S30.859,71,27,71z M27,59c-2.757,0-5,2.243-5,5s2.243,5,5,5 s5-2.243,5-5S29.757,59,27,59z"/><circle cx="68" cy="64" r="6" fill="#fed5b3"/><path d="M68,71c-3.859,0-7-3.141-7-7s3.141-7,7-7s7,3.141,7,7S71.859,71,68,71z M68,59c-2.757,0-5,2.243-5,5s2.243,5,5,5 s5-2.243,5-5S70.757,59,68,59z"/><path fill="#fed5b3" d="M26.926,41.645c0,0-3.706,29.112,3.706,42.26s28.721,14.087,34.28-0.939s4.328-31.689,2.779-43.199 C64.912,19.107,28.779,12.533,26.926,41.645z"/><path d="M48.462,95c-7.681,0-15.044-4.118-18.7-10.604c-7.433-13.184-4.032-41.25-3.831-42.845 c0.948-14.684,10.381-20.238,18.897-20.537c10.208-0.361,22.245,6.659,23.854,18.62c1.525,11.339,2.893,28.204-2.833,43.679 c-2.475,6.691-8.342,11.035-15.692,11.62C49.592,94.979,49.025,95,48.462,95z M45.592,23c-0.232,0-0.463,0.004-0.693,0.012 c-9.905,0.348-16.251,7.336-16.974,18.696c-0.001,0.021-0.003,0.042-0.006,0.063c-0.037,0.288-3.578,28.936,3.585,41.642 c3.549,6.296,10.975,10.12,18.494,9.526c6.651-0.53,11.746-4.292,13.977-10.32C69.544,67.562,68.197,51.027,66.7,39.9 C65.276,29.315,54.782,23,45.592,23z M26.927,41.645h0.01H26.927z"/><path fill="#fff" d="M31.657,46.5c-1.012,1.639-1.444,3.674-0.957,5.832c0.663,2.942,3.078,5.277,6.042,5.836 C41.684,59.098,46,55.333,46,50.56c0-1.491-0.428-2.878-1.157-4.06H31.657z"/><path d="M38.233,58.807c-0.525,0-1.056-0.049-1.584-0.148c-3.146-0.593-5.732-3.092-6.437-6.217 c-0.485-2.15-0.123-4.354,1.019-6.204C31.323,46.09,31.483,46,31.657,46h13.186c0.174,0,0.334,0.09,0.426,0.237 c0.806,1.305,1.231,2.8,1.231,4.322c0,2.464-1.089,4.78-2.987,6.354C42.021,58.149,40.158,58.807,38.233,58.807z M31.942,47 c-0.893,1.576-1.161,3.419-0.755,5.221c0.618,2.743,2.888,4.935,5.647,5.455c2.167,0.41,4.371-0.149,6.039-1.532 c1.669-1.384,2.626-3.419,2.626-5.584c0-1.245-0.325-2.47-0.942-3.56H31.942z"/><path fill="#fed5b3" d="M34.224,43.347c-2.153,1.315-3.612,3.652-3.709,6.338c5.174-1.36,10.318-1.565,15.433-0.591 c-0.254-2.254-1.472-4.215-3.233-5.46"/><path d="M30.515,50.185c-0.112,0-0.223-0.038-0.313-0.109c-0.123-0.099-0.192-0.25-0.188-0.409 c0.101-2.775,1.576-5.297,3.948-6.747c0.234-0.144,0.542-0.07,0.688,0.166c0.144,0.236,0.069,0.543-0.166,0.688 c-1.891,1.155-3.134,3.086-3.414,5.255c4.775-1.162,9.569-1.347,14.272-0.552c-0.373-1.781-1.412-3.372-2.917-4.435 c-0.226-0.159-0.279-0.471-0.12-0.697c0.161-0.226,0.476-0.278,0.696-0.12c1.926,1.36,3.181,3.479,3.442,5.813 c0.018,0.158-0.041,0.314-0.157,0.422c-0.117,0.108-0.277,0.152-0.434,0.125c-4.999-0.952-10.117-0.756-15.212,0.583 C30.6,50.18,30.557,50.185,30.515,50.185z"/><path fill="#fff" d="M50.657,46.5c-1.012,1.639-1.444,3.674-0.957,5.832c0.663,2.942,3.078,5.277,6.042,5.836 C60.684,59.098,65,55.333,65,50.56c0-1.491-0.428-2.878-1.157-4.06H50.657z"/><path d="M57.233,58.807c-0.525,0-1.056-0.049-1.584-0.148c-3.146-0.593-5.732-3.092-6.437-6.217 c-0.485-2.15-0.123-4.354,1.019-6.204C50.323,46.09,50.483,46,50.657,46h13.186c0.174,0,0.334,0.09,0.426,0.237 c0.806,1.305,1.231,2.8,1.231,4.322c0,2.464-1.089,4.78-2.987,6.354C61.021,58.149,59.158,58.807,57.233,58.807z M50.942,47 c-0.893,1.576-1.161,3.419-0.755,5.221c0.618,2.743,2.888,4.935,5.647,5.455c2.169,0.41,4.371-0.149,6.039-1.532 c1.669-1.384,2.626-3.419,2.626-5.584c0-1.245-0.325-2.47-0.942-3.56H50.942z"/><path fill="#fed5b3" d="M53.224,43.347c-2.153,1.315-3.612,3.652-3.709,6.338c5.174-1.36,10.318-1.565,15.433-0.591 c-0.254-2.254-1.472-4.215-3.233-5.46"/><path d="M49.515,50.185c-0.112,0-0.223-0.038-0.313-0.109c-0.123-0.099-0.192-0.25-0.188-0.409 c0.101-2.775,1.576-5.297,3.948-6.747c0.233-0.144,0.542-0.07,0.688,0.166c0.144,0.236,0.069,0.543-0.166,0.688 c-1.891,1.155-3.134,3.086-3.414,5.255c4.775-1.162,9.569-1.347,14.272-0.552c-0.373-1.781-1.412-3.372-2.917-4.435 c-0.226-0.159-0.279-0.471-0.12-0.697c0.161-0.226,0.475-0.278,0.696-0.12c1.926,1.36,3.181,3.479,3.442,5.813 c0.018,0.158-0.041,0.314-0.157,0.422c-0.117,0.108-0.278,0.152-0.434,0.125c-4.999-0.952-10.117-0.756-15.212,0.583 C49.6,50.18,49.557,50.185,49.515,50.185z"/><circle cx="38.5" cy="49.5" r="1.5"/><circle cx="57.5" cy="49.5" r="1.5"/><path d="M37.235,62.651c-3.374,0-5.608-1.969-5.729-2.078c-0.205-0.185-0.221-0.499-0.037-0.705 c0.185-0.204,0.501-0.22,0.706-0.038c0.142,0.126,3.501,3.062,8.14,1.206c0.255-0.104,0.547,0.022,0.649,0.278 s-0.021,0.547-0.278,0.649C39.445,62.461,38.285,62.651,37.235,62.651z"/><path d="M57.105,62.651c-1.05,0-2.21-0.19-3.45-0.688c-0.257-0.103-0.381-0.394-0.278-0.649s0.394-0.382,0.649-0.278 c4.656,1.861,8.104-1.175,8.139-1.205c0.205-0.187,0.521-0.169,0.706,0.036c0.186,0.205,0.169,0.521-0.036,0.706 C62.714,60.683,60.479,62.651,57.105,62.651z"/><path d="M50.065,30.751c-0.241,0-0.453-0.175-0.493-0.421c-0.043-0.272,0.143-0.529,0.415-0.573 c1.195-0.192,2.331-0.44,3.375-0.739c0.269-0.075,0.543,0.078,0.618,0.344c0.076,0.265-0.077,0.542-0.343,0.618 c-1.082,0.309-2.257,0.566-3.492,0.764C50.119,30.75,50.092,30.751,50.065,30.751z"/><g><path d="M43.354,31.251c-2.83,0-4.803-0.241-4.916-0.255c-0.273-0.034-0.468-0.284-0.434-0.558 c0.033-0.275,0.297-0.469,0.558-0.434c0.038,0.005,3.797,0.464,8.332,0.115c0.251-0.025,0.516,0.184,0.536,0.46 c0.021,0.275-0.185,0.516-0.46,0.537C45.675,31.215,44.45,31.251,43.354,31.251z"/></g><g><path d="M47,69.75c-0.805,0-1.576-0.415-2.119-1.138C44.305,67.844,44,66.768,44,65.5v-6c0-0.276,0.224-0.5,0.5-0.5 s0.5,0.224,0.5,0.5v6c0,2.233,1.037,3.25,2,3.25s2-1.017,2-3.25v-6c0-0.276,0.224-0.5,0.5-0.5s0.5,0.224,0.5,0.5v6 C50,68.42,48.445,69.75,47,69.75z"/></g><g><path d="M58.5,80c-0.064,0-0.13-0.013-0.192-0.038c-11.649-4.856-22.494-0.055-22.601-0.007c-0.25,0.114-0.547,0.003-0.662-0.248 c-0.114-0.252-0.003-0.548,0.248-0.662c0.111-0.052,11.337-5.029,23.399-0.007c0.255,0.106,0.375,0.399,0.27,0.654 C58.882,79.885,58.695,80,58.5,80z"/></g><g><line x1="19.866" x2="21.915" y1="36.878" y2="39.553" fill="#cdcbbd"/><path d="M21.915,40.053c-0.15,0-0.299-0.067-0.396-0.196l-2.05-2.676c-0.168-0.219-0.127-0.533,0.093-0.701 c0.22-0.167,0.533-0.126,0.7,0.093l2.05,2.676c0.168,0.219,0.127,0.533-0.093,0.701C22.128,40.02,22.021,40.053,21.915,40.053z"/></g><g><line x1="12.723" x2="17.854" y1="27.553" y2="34.252" fill="#cdcbbd"/><path d="M17.854,34.751c-0.15,0-0.299-0.067-0.396-0.196l-5.131-6.698c-0.168-0.219-0.127-0.533,0.093-0.701 c0.219-0.167,0.533-0.126,0.7,0.093l5.131,6.698c0.168,0.219,0.127,0.533-0.093,0.701C18.067,34.718,17.961,34.751,17.854,34.751z"/></g><g><line x1="27.591" x2="29.191" y1="17.022" y2="23.979" fill="#cdcbbd"/><path d="M29.191,24.479c-0.229,0-0.434-0.157-0.487-0.388l-1.6-6.956c-0.062-0.269,0.106-0.537,0.375-0.599 c0.274-0.062,0.537,0.107,0.6,0.375l1.6,6.956c0.062,0.269-0.106,0.537-0.375,0.599C29.266,24.475,29.229,24.479,29.191,24.479z"/></g><g><line x1="26.255" x2="26.887" y1="11.213" y2="13.959" fill="#cdcbbd"/><path d="M26.887,14.459c-0.229,0-0.434-0.156-0.487-0.388l-0.632-2.746c-0.062-0.27,0.106-0.538,0.375-0.6 c0.273-0.061,0.537,0.106,0.6,0.375l0.632,2.746c0.062,0.27-0.106,0.538-0.375,0.6C26.961,14.455,26.924,14.459,26.887,14.459z"/></g><g><path fill="#a3a3cd" d="M40.737,40.568c-2.538,0-5.228-0.158-8.041-0.591c-1.092-0.168-1.841-1.189-1.673-2.281 c0.169-1.092,1.198-1.844,2.28-1.672c6.612,1.016,12.402,0.409,17.511-0.127c4.669-0.491,8.7-0.915,11.861,0.222 c1.04,0.374,1.58,1.519,1.206,2.558s-1.519,1.579-2.558,1.207c-2.302-0.827-5.912-0.448-10.093-0.008 C48.155,40.197,44.624,40.568,40.737,40.568z"/><path d="M40.737,41.068c-2.852,0-5.507-0.195-8.117-0.597c-1.362-0.209-2.301-1.489-2.091-2.851 c0.103-0.662,0.458-1.244,1.001-1.64c0.538-0.394,1.194-0.558,1.852-0.45c6.547,1.006,12.303,0.402,17.381-0.131 c4.73-0.498,8.815-0.926,12.082,0.248c0.629,0.226,1.132,0.683,1.417,1.287c0.284,0.604,0.316,1.283,0.091,1.912 c-0.467,1.296-1.896,1.973-3.197,1.508c-2.197-0.79-5.753-0.416-9.871,0.018C48.165,40.699,44.645,41.068,40.737,41.068z M32.994,36.499c-0.313,0-0.616,0.099-0.875,0.288c-0.326,0.238-0.54,0.588-0.602,0.985c-0.126,0.817,0.438,1.584,1.255,1.71 c2.56,0.394,5.164,0.585,7.965,0.585c3.854,0,7.348-0.366,10.429-0.69c4.252-0.448,7.914-0.833,10.327,0.034 c0.778,0.279,1.639-0.127,1.918-0.905c0.136-0.377,0.116-0.784-0.055-1.146s-0.473-0.637-0.85-0.772 c-3.054-1.098-7.034-0.68-11.639-0.195c-5.14,0.541-10.962,1.151-17.641,0.125C33.149,36.505,33.071,36.499,32.994,36.499z"/></g></svg>